<?xml version="1.0" encoding="UTF-8"?>
<!DOCTYPE svg PUBLIC "-//W3C//DTD SVG 1.1//EN" "http://www.w3.org/Graphics/SVG/1.1/DTD/svg11.dtd">
<svg xmlns="http://www.w3.org/2000/svg" version="1.1" width="64px" height="64px" style="shape-rendering:geometricPrecision; text-rendering:geometricPrecision; image-rendering:optimizeQuality; fill-rule:evenodd; clip-rule:evenodd" xmlns:xlink="http://www.w3.org/1999/xlink">
<g><path style="opacity:0.5" fill="#0a0907" d="M 59.5,44.5 C 57.955,43.7703 57.1216,42.437 57,40.5C 56.2514,35.511 55.5847,30.511 55,25.5C 53.9887,24.6634 52.8221,24.33 51.5,24.5C 52.4385,26.9103 52.4385,29.2436 51.5,31.5C 49.7483,31.5824 48.7483,30.7491 48.5,29C 49.2335,27.2341 49.5668,25.4008 49.5,23.5C 45.5,23.5 41.5,23.5 37.5,23.5C 36.6618,23.8417 36.3284,24.5084 36.5,25.5C 35.6981,24.0484 35.1981,22.3817 35,20.5C 33.6439,19.6198 32.1439,19.2865 30.5,19.5C 30.3205,21.9541 30.9872,24.1208 32.5,26C 32.2568,26.9021 31.9234,27.7354 31.5,28.5C 27.7162,28.4747 26.7162,26.8081 28.5,23.5C 29.4345,22.4324 29.7678,21.099 29.5,19.5C 23.8333,19.5 18.1667,19.5 12.5,19.5C 12.2322,21.099 12.5655,22.4324 13.5,23.5C 15.3414,27.4692 14.1747,28.8026 10,27.5C 10.6111,24.9671 11.1111,22.3004 11.5,19.5C 9.85613,19.2865 8.35613,19.6198 7,20.5C 6.50258,23.146 6.33591,25.8127 6.5,28.5C 6.16667,29.1667 5.83333,29.8333 5.5,30.5C 4.92809,35.17 4.26142,39.8367 3.5,44.5C 5.39221,47.7398 7.72554,50.7398 10.5,53.5C 16.7985,54.4963 23.1318,54.8297 29.5,54.5C 30.1667,54.1667 30.8333,53.8333 31.5,53.5C 37.793,56.2393 40.4597,54.2393 39.5,47.5C 39.8333,47.5 40.1667,47.5 40.5,47.5C 40.5,48.5 40.5,49.5 40.5,50.5C 46.5,50.5 52.5,50.5 58.5,50.5C 58.2627,49.209 58.596,48.209 59.5,47.5C 60.4882,49.4371 61.4882,51.4371 62.5,53.5C 62.3918,54.4419 62.0585,55.2753 61.5,56C 41.8333,56.6667 22.1667,56.6667 2.5,56C 1.02026,54.7009 0.353596,53.0342 0.5,51C 1.90677,40.8192 3.40677,30.6526 5,20.5C 6.17389,18.3291 8.00722,17.3291 10.5,17.5C 13.0602,6.46961 19.2268,3.80294 29,9.5C 30.7068,11.9088 31.5402,14.5755 31.5,17.5C 34.7192,14.6373 38.5526,12.6373 43,11.5C 48.5543,12.5522 51.3876,15.8855 51.5,21.5C 53.7144,21.2907 55.381,22.124 56.5,24C 57.8267,30.7873 58.8267,37.6206 59.5,44.5 Z M 18.5,9.5 C 24.4955,8.82811 27.8288,11.4948 28.5,17.5C 23.456,17.8275 18.456,17.4941 13.5,16.5C 14.0649,13.2842 15.7316,10.9509 18.5,9.5 Z M 39.5,15.5 C 44.8249,14.3137 47.8249,16.3137 48.5,21.5C 44.774,21.8226 41.1073,21.4892 37.5,20.5C 37.2907,19.914 36.9574,19.414 36.5,19C 37.7101,17.9609 38.7101,16.7942 39.5,15.5 Z"/></g>
<g><path style="opacity:1" fill="#9f812a" d="M 28.5,23.5 C 28.5,22.5 28.5,21.5 28.5,20.5C 23.5,20.5 18.5,20.5 13.5,20.5C 13.5,21.5 13.5,22.5 13.5,23.5C 12.5655,22.4324 12.2322,21.099 12.5,19.5C 18.1667,19.5 23.8333,19.5 29.5,19.5C 29.7678,21.099 29.4345,22.4324 28.5,23.5 Z"/></g>
<g><path style="opacity:1" fill="#f5c542" d="M 13.5,23.5 C 13.5,22.5 13.5,21.5 13.5,20.5C 18.5,20.5 23.5,20.5 28.5,20.5C 28.5,21.5 28.5,22.5 28.5,23.5C 26.7162,26.8081 27.7162,28.4747 31.5,28.5C 29.7824,34.2684 26.7824,39.2684 22.5,43.5C 17.1667,38.5 11.8333,33.5 6.5,28.5C 6.33591,25.8127 6.50258,23.146 7,20.5C 8.35613,19.6198 9.85613,19.2865 11.5,19.5C 11.1111,22.3004 10.6111,24.9671 10,27.5C 14.1747,28.8026 15.3414,27.4692 13.5,23.5 Z"/></g>
<g><path style="opacity:1" fill="#07a985" d="M 37.5,23.5 C 41.5,23.5 45.5,23.5 49.5,23.5C 49.5668,25.4008 49.2335,27.2341 48.5,29C 48.7483,30.7491 49.7483,31.5824 51.5,31.5C 48.5137,36.1517 44.8471,40.1517 40.5,43.5C 39.1448,37.0207 38.1448,30.354 37.5,23.5 Z"/></g>
<g><path style="opacity:1" fill="#f3d687" d="M 36.5,25.5 C 37.0129,32.9401 38.0129,40.2735 39.5,47.5C 40.4597,54.2393 37.793,56.2393 31.5,53.5C 28.5,50.1667 25.5,46.8333 22.5,43.5C 26.7824,39.2684 29.7824,34.2684 31.5,28.5C 31.9234,27.7354 32.2568,26.9021 32.5,26C 30.9872,24.1208 30.3205,21.9541 30.5,19.5C 32.1439,19.2865 33.6439,19.6198 35,20.5C 35.1981,22.3817 35.6981,24.0484 36.5,25.5 Z"/></g>
<g><path style="opacity:1" fill="#142820" d="M 37.5,23.5 C 38.1448,30.354 39.1448,37.0207 40.5,43.5C 40.5,44.8333 40.5,46.1667 40.5,47.5C 40.1667,47.5 39.8333,47.5 39.5,47.5C 38.0129,40.2735 37.0129,32.9401 36.5,25.5C 36.3284,24.5084 36.6618,23.8417 37.5,23.5 Z"/></g>
<g><path style="opacity:1" fill="#312616" d="M 6.5,28.5 C 11.8333,33.5 17.1667,38.5 22.5,43.5C 25.5,46.8333 28.5,50.1667 31.5,53.5C 30.8333,53.8333 30.1667,54.1667 29.5,54.5C 22.7601,46.2552 15.4268,38.4218 7.5,31C 6.90558,30.5357 6.23891,30.369 5.5,30.5C 5.83333,29.8333 6.16667,29.1667 6.5,28.5 Z"/></g>
<g><path style="opacity:0.999" fill="#61c7b0" d="M 59.5,44.5 C 59.5,45.5 59.5,46.5 59.5,47.5C 58.596,48.209 58.2627,49.209 58.5,50.5C 52.5,50.5 46.5,50.5 40.5,50.5C 40.5,49.5 40.5,48.5 40.5,47.5C 40.5,46.1667 40.5,44.8333 40.5,43.5C 44.8471,40.1517 48.5137,36.1517 51.5,31.5C 52.4385,29.2436 52.4385,26.9103 51.5,24.5C 52.8221,24.33 53.9887,24.6634 55,25.5C 55.5847,30.511 56.2514,35.511 57,40.5C 57.1216,42.437 57.955,43.7703 59.5,44.5 Z"/></g>
<g><path style="opacity:1" fill="#ef5256" d="M 5.5,30.5 C 6.23891,30.369 6.90558,30.5357 7.5,31C 15.4268,38.4218 22.7601,46.2552 29.5,54.5C 23.1318,54.8297 16.7985,54.4963 10.5,53.5C 7.72554,50.7398 5.39221,47.7398 3.5,44.5C 4.26142,39.8367 4.92809,35.17 5.5,30.5 Z"/></g>
<g><path style="opacity:1" fill="#cab271" d="M 2.5,48.5 C 5.0692,49.3956 7.0692,51.0623 8.5,53.5C 3.5548,55.5613 1.5548,53.8946 2.5,48.5 Z"/></g>
<g><path style="opacity:1" fill="#676c7a" d="M 40.5,52.5 C 47.175,52.3337 53.8417,52.5004 60.5,53C 57.1841,54.1302 53.6841,54.6302 50,54.5C 46.4242,54.4848 43.2575,53.8182 40.5,52.5 Z"/></g>
</svg>
